# xmcd CD database file
# Copyright (C) 1996 Ti Kan
#
# Track frame offsets:
#  150
#  13027
#  21802
#  34107
#  46897
#  59102
#  71920
#  85867
#  97735
#  112455
#  126092
#  139397
#  151890
#  165545
#  177165
#  190320
#  202940
#  214965
#  226312
#  240952
#  254622
#  266875
#
# Disc length: 3747 seconds
#
# Revision: 2
# Processed by: cddbd v1.4PL0 Copyright (c) Steve Scherf et al.
# Submitted via: Gronk 1.4
#
DISCID=3f0ea116
DTITLE=Amos Milburn - Blues, Barrelhouse, and Boogie [CD3]
DYEAR=1900
DGENRE=blues
TTITLE0=Drifting Blues
TTITLE1=Untitled Boogie
TTITLE2=Melting Blues
TTITLE3=Boogie Woogie
TTITLE4=Atomic Baby
TTITLE5=Sex Shack Boogie
TTITLE6=Birmingham Bounce
TTITLE7=Let's Rock A While
TTITLE8=Hard Luck Blues
TTITLE9=Two Years Of Torture
TTITLE10=Bad, Bad Whiskey
TTITLE11=Tears, Tears, Tears
TTITLE12=Put Something In My Hand
TTITLE13=Trouble In Mind
TTITLE14=Flying Home
TTITLE15=Let Me Go Home, Whiskey
TTITLE16=Please Mr. Johnson
TTITLE17=Let's Have A Party
TTITLE18=One Scotch, One Bourbon, One Beer
TTITLE19=Good, Good Whiskey
TTITLE20=After Awhile
TTITLE21=I Guess I'll Go
EXTD=CDP 7243 8 36879 2 3\n\nSubmitted 6/6/97
EXTT0=
EXTT1=
EXTT2=
EXTT3=
EXTT4=
EXTT5=
EXTT6=
EXTT7=
EXTT8=
EXTT9=
EXTT10=
EXTT11=
EXTT12=
EXTT13=
EXTT14=
EXTT15=
EXTT16=
EXTT17=
EXTT18=
EXTT19=
EXTT20=
EXTT21=
PLAYORDER=
